<?xml version="1.0" standalone="no"?><!DOCTYPE svg PUBLIC "-//W3C//DTD SVG 1.1//EN" "http://www.w3.org/Graphics/SVG/1.1/DTD/svg11.dtd"><svg t="1690167273506" class="icon" viewBox="0 0 2048 1024" version="1.1" xmlns="http://www.w3.org/2000/svg" p-id="1815" xmlns:xlink="http://www.w3.org/1999/xlink" width="144" height="72"><path d="M1311.854911 207.89618A1287.192714 1287.192714 0 0 1 2038.98039 430.060618l0.818662 0.511664c10.33561 9.721613 6.446964 19.443226 4.553808 23.024873l-1.944322 3.069983-209.782174 238.895845s-0.920995 1.176827-1.330325 1.483825c-3.428148 2.96765-10.744941 8.595952-22.308544 2.353654-0.818662-0.409331-1.432659-1.176827-2.148988-1.739657a1231.472523 1231.472523 0 0 0-791.441623-284.894425 1230.039864 1230.039864 0 0 0-595.423207 154.010815c232.346548-221.85744 546.201146-358.267019 891.881234-358.881015zM1028.597811 0.007163A1421.913803 1421.913803 0 0 1 1836.36151 248.675788a1333.344792 1333.344792 0 0 0-522.664609-104.891087C872.898506 144.501031 481.987334 358.683513 237.41202 688.706688c-0.306998 0.460497-0.56283 0.920995-0.920995 1.330326a17.959401 17.959401 0 0 1-25.736691 2.455986c-0.511664-0.409331-1.893156-2.097822-1.893156-2.097822L4.604975 459.481289l-0.511664-0.511664-0.511664-0.818662a18.419898 18.419898 0 0 1 1.074494-23.076039l0.511664-0.511664C265.041867 167.116572 627.35103 0.774659 1028.597811 0.007163zM714.79438 818.976301c3.223482 0 5.679469 2.814151 5.679469 6.344631v33.82098c0 3.68398-2.814151 6.139966-5.167805 6.139966h-192.027438v32.746485h191.208776c5.37247 0 5.986467 4.707307 5.986467 7.163294v32.644153c0 4.80964-3.632813 6.446964-5.679469 6.446964h-191.515774v32.746486h191.72044c3.581647 0 5.474803 2.814151 5.474803 6.958628v32.951151c0 3.837479-2.711818 6.395798-5.218971 6.395798H475.591536c-3.325815 0-5.679469-2.916484-5.679468-6.65163v-191.208776c0-2.507153 1.84199-6.498131 6.549297-6.49813zM1204.405506 818.669302c3.376981 0 4.860806 3.325815 4.860806 3.325815l87.801514 191.771606s2.916484 9.568114-5.167804 9.568114h-40.574943c-3.837479 0-5.321304-3.632813-5.321303-3.632813l-70.251445-152.219992-69.637448 152.117659s-1.534992 3.735146-4.911973 3.735146h-40.523776c-5.986467 0-6.65163-6.805129-5.270138-9.875112 20.466553-45.538081 77.67057-170.281725 87.494516-191.618107 0.920995-2.046655 2.865317-3.172316 5.423637-3.172316h56.078357z m339.795954 0.306999c43.593759 0 46.97074 31.620825 46.97074 41.291271v46.663742c0 22.615542-13.507925 28.755508-19.340893 31.364993l-7.112128 3.223482 7.163294 3.223483c0.767496 0.358165 19.289727 9.107616 19.289727 29.676502v42.621598s0 6.293465-5.37247 6.293465h-41.342438c-4.860806 0-5.628302-6.037633-5.628303-6.037633v-26.197189c0-13.30326-8.033122-22.155044-19.852557-22.155044h-125.101808v47.942902c0 3.172316-2.251321 6.446964-5.832967 6.446964h-41.956435c-2.558319 0-5.628302-2.200154-5.628302-6.600463v-191.362275c0-3.376981 2.302487-6.395798 5.986467-6.395798h197.758073z m-1172.017185 0c41.137772 0 57.971513 15.247582 57.971513 52.650208v99.109286c0 37.35146-16.83374 52.599042-57.971513 52.599042H185.989805c-2.097822 0-5.986467-1.12566-5.986467-6.65163v-191.208776c0-2.40482 1.27916-6.498131 6.139966-6.49813h186.040971z m1451.180974 0c41.188939 0 57.971513 15.247582 57.971513 52.650208v99.109286c0 37.35146-16.782574 52.599042-57.971513 52.599042h-186.19447c-2.046655 0-5.986467-1.12566-5.986467-6.65163v-191.208776c0-2.40482 1.27916-6.498131 6.139966-6.49813h186.040971z m-818.048142 0c5.474803 0 5.474803 6.242299 5.474803 6.242298v33.25815s0 6.805129-5.372471 6.805129h-165.472084c-21.489881 0-25.736691 10.437942-25.736691 28.448509v54.748031c0 17.959401 4.195643 28.29501 25.736691 28.29501h164.909254c5.935301 0 5.935301 6.702796 5.935301 6.702796v32.746486s0 7.112127-5.730635 7.112127H818.662139c-41.240105 0-58.022679-15.247582-58.022679-52.599042v-99.109286c0-37.402626 16.782574-52.701375 58.022679-52.701375h186.706134z m-654.52038 46.25441H233.31871v111.747382h117.478017c21.489881 0 25.736691-10.386776 25.736691-28.448509v-54.74803c0-18.061733-4.195643-28.550842-25.736691-28.550843z m1451.180974 0h-117.426851v111.747382h117.426851c21.541048 0 25.787857-10.386776 25.787857-28.448509v-54.74803c0-18.061733-4.24681-28.550842-25.787857-28.550843z m-278.754459-1.944322h-129.348618v59.046007h129.092786c15.656913 0 18.829229-5.014306 18.82923-29.983501 0-12.279932 0-29.062506-18.573398-29.062506z" fill="#3DBDE9" p-id="1816"></path></svg>