<?xml version="1.0" standalone="no"?><!DOCTYPE svg PUBLIC "-//W3C//DTD SVG 1.1//EN" "http://www.w3.org/Graphics/SVG/1.1/DTD/svg11.dtd"><svg t="1690859964480" class="icon" viewBox="0 0 1024 1024" version="1.1" xmlns="http://www.w3.org/2000/svg" p-id="3777" xmlns:xlink="http://www.w3.org/1999/xlink" width="200" height="200"><path d="M512 512m-512 0a512 512 0 1 0 1024 0 512 512 0 1 0-1024 0Z" fill="#2568F1" p-id="3778"></path><path d="M341.333333 298.666667v426.496h155.904c69.290667 0 121.258667-19.114667 157.098667-57.344 34.048-36.437333 51.370667-88.405333 51.370667-155.904 0-68.096-17.322667-120.064-51.370667-155.904C618.496 317.781333 566.528 298.666667 497.237333 298.666667H341.333333z m69.888 59.733333h72.874667c53.162667 0 91.989333 11.946667 116.48 36.437333 23.893333 23.893333 35.84 63.317333 35.84 117.077334 0 52.565333-11.946667 91.392-35.84 116.48-24.490667 24.490667-63.317333 37.034667-116.48 37.034666H411.221333V358.4z" fill="#FFFFFF" p-id="3779"></path></svg>