<?xml version="1.0" standalone="no"?><!DOCTYPE svg PUBLIC "-//W3C//DTD SVG 1.1//EN" "http://www.w3.org/Graphics/SVG/1.1/DTD/svg11.dtd"><svg t="1698214326945" class="icon" viewBox="0 0 1024 1024" version="1.1" xmlns="http://www.w3.org/2000/svg" p-id="3185" xmlns:xlink="http://www.w3.org/1999/xlink" width="72" height="72"><path d="M512.32 224c179.2 0 343.232 98.304 431.616 257.152l8.576 16.128L960 512l-7.488 14.72c-86.016 168.96-255.04 273.28-440.192 273.28-179.84 0-343.872-97.728-432.256-257.152l-8.576-16.128L64 512l7.488-14.72C157.44 328.96 326.528 224 512.32 224z m0 64C355.2 288 212.416 373.12 135.04 512c77.312 138.88 220.096 224 377.216 224 156.48 0 299.904-85.12 377.216-224-77.952-138.88-220.736-224-377.216-224zM512 327.68a184.32 184.32 0 1 1 0 368.64 184.32 184.32 0 0 1 0-368.64z m0 64a120.32 120.32 0 1 0 0 240.64 120.32 120.32 0 0 0 0-240.64z" p-id="3186"></path></svg>