<?xml version="1.0" standalone="no"?><!DOCTYPE svg PUBLIC "-//W3C//DTD SVG 1.1//EN" "http://www.w3.org/Graphics/SVG/1.1/DTD/svg11.dtd"><svg t="1699847434796" class="icon" viewBox="0 0 1024 1024" version="1.1" xmlns="http://www.w3.org/2000/svg" p-id="5190" xmlns:xlink="http://www.w3.org/1999/xlink" width="72" height="72"><path d="M512 64a448 448 0 1 1 0 896A448 448 0 0 1 512 64z m0 64a384 384 0 1 0 0 768A384 384 0 1 0 512 128z m63.744 364.288l126.08 101.504a11.904 11.904 0 0 1-0.064 18.496l-126.08 101.44a11.84 11.84 0 0 1-19.2-9.216V638.016H450.752c-35.84 0-118.848-4.992-132.928-104.32-0.704-4.992 5.632-7.936 8.96-4.096 18.88 21.248 41.152 37.248 85.056 37.248h144.64v-65.28c0-9.984 11.52-15.488 19.2-9.28z m-108.16-182.272v66.432h105.6c35.84 0 118.784 4.992 132.928 104.32 0.64 5.056-5.632 7.936-8.96 4.096-18.88-21.184-41.216-37.248-85.056-37.248h-144.64v65.344c0 9.984-11.52 15.488-19.2 9.28l-126.08-101.568a11.84 11.84 0 0 1 0-18.496L448.32 300.8a11.84 11.84 0 0 1 19.264 9.28z" p-id="5191"></path></svg>