<?xml version="1.0" standalone="no"?><!DOCTYPE svg PUBLIC "-//W3C//DTD SVG 1.1//EN" "http://www.w3.org/Graphics/SVG/1.1/DTD/svg11.dtd"><svg t="1698283165803" class="icon" viewBox="0 0 1024 1024" version="1.1" xmlns="http://www.w3.org/2000/svg" p-id="3401" xmlns:xlink="http://www.w3.org/1999/xlink" width="72" height="72"><path d="M620.8 64a51.2 51.2 0 0 1 51.2 51.2V192H896v64h-64v640a64 64 0 0 1-64 64H256a64 64 0 0 1-64-64V256H128V192h224V115.2a51.2 51.2 0 0 1 51.2-51.2h217.6zM768 256H256v640h512V256zM448 384v384H384V384h64z m192 0v384H576V384h64z m-32-256h-192v64h192V128z" p-id="3402"></path></svg>