<?xml version="1.0" standalone="no"?><!DOCTYPE svg PUBLIC "-//W3C//DTD SVG 1.1//EN" "http://www.w3.org/Graphics/SVG/1.1/DTD/svg11.dtd"><svg t="1699847356718" class="icon" viewBox="0 0 1024 1024" version="1.1" xmlns="http://www.w3.org/2000/svg" p-id="4743" xmlns:xlink="http://www.w3.org/1999/xlink" width="72" height="72"><path d="M508.8 128a64 64 0 0 1 45.248 18.752l392.512 392.512a64 64 0 0 1 0 90.56l-316.8 316.8a64 64 0 0 1-90.496 0L146.752 553.984A64 64 0 0 1 128 508.8V128h380.8z m0 64H192v316.8l392.512 392.512 316.8-316.8L508.8 192z m-7.104 128.64A128 128 0 1 1 320.64 501.76 128 128 0 0 1 501.76 320.64z m-135.744 45.248a64 64 0 1 0 90.496 90.56 64 64 0 0 0-90.496-90.56z" p-id="4744"></path></svg>