<?xml version="1.0" standalone="no"?><!DOCTYPE svg PUBLIC "-//W3C//DTD SVG 1.1//EN" "http://www.w3.org/Graphics/SVG/1.1/DTD/svg11.dtd"><svg t="1699847388289" class="icon" viewBox="0 0 1024 1024" version="1.1" xmlns="http://www.w3.org/2000/svg" p-id="5041" xmlns:xlink="http://www.w3.org/1999/xlink" width="72" height="72"><path d="M608 128a32 32 0 0 1 32 32v192a32 32 0 0 1-32 32h-64v128h192a64 64 0 0 1 64 64v64h64a32 32 0 0 1 32 32v192a32 32 0 0 1-32 32h-192a32 32 0 0 1-32-32v-192a32 32 0 0 1 32-32h64V576h-448v64h64a32 32 0 0 1 32 32v192a32 32 0 0 1-32 32h-192a32 32 0 0 1-32-32v-192a32 32 0 0 1 32-32h64V576a64 64 0 0 1 64-64h192V384h-64a32 32 0 0 1-32-32v-192a32 32 0 0 1 32-32h192zM320 704H192v128h128v-128z m512 0h-128v128h128v-128zM576 192H448v128h128V192z" p-id="5042"></path></svg>