<?xml version="1.0" standalone="no"?><!DOCTYPE svg PUBLIC "-//W3C//DTD SVG 1.1//EN" "http://www.w3.org/Graphics/SVG/1.1/DTD/svg11.dtd"><svg t="1699847279635" class="icon" viewBox="0 0 1024 1024" version="1.1" xmlns="http://www.w3.org/2000/svg" p-id="3998" xmlns:xlink="http://www.w3.org/1999/xlink" width="72" height="72"><path d="M832.128 63.808a64 64 0 0 1 64 64V896h31.872a32 32 0 1 1 0 64L192 959.936V960H128v-0.064h-32a32 32 0 1 1 0-63.936H128V448a64 64 0 0 1 64-64h127.936L320 127.808a64 64 0 0 1 64-64h448.128zM832 128.128H384.064L384 896h447.936V128.128zM320 447.872H192V896h127.936V447.872zM672 576a32 32 0 1 1 0 64h-128a32 32 0 0 1 0-64h128z m0-192a32 32 0 1 1 0 64h-128a32 32 0 0 1 0-64h128z" p-id="3999"></path></svg>