<?xml version="1.0" standalone="no"?><!DOCTYPE svg PUBLIC "-//W3C//DTD SVG 1.1//EN" "http://www.w3.org/Graphics/SVG/1.1/DTD/svg11.dtd"><svg t="1690956134185" class="icon" viewBox="0 0 1024 1024" version="1.1" xmlns="http://www.w3.org/2000/svg" p-id="3505" xmlns:xlink="http://www.w3.org/1999/xlink" width="200" height="200"><path d="M192 896v-64h288v-128H185.152c-46.144 0-84.096-30.912-88.704-70.528L96 625.472V206.528c0-40.64 35.072-74.112 80-78.08L185.152 128h653.696c46.144 0 84.096 30.912 88.704 70.528l0.448 8v418.944c0 40.64-35.072 74.112-80 78.08l-9.152 0.448H544v128H832v64H192zM834.688 192H189.312c-14.4 0-26.368 8.832-28.8 20.416l-0.512 4.48V615.04c0 12.224 10.368 22.4 24.064 24.512l5.248 0.384h645.376c14.4 0 26.368-8.832 28.8-20.416l0.512-4.48V216.96c0-13.76-13.12-24.896-29.312-24.896z m-141.824 102.08c11.008 8.768 14.144 24.384 8.064 36.864l-2.688 4.48-125.824 164.928L463.552 416 369.792 533.44a27.328 27.328 0 0 1-35.52 6.72l-4.16-3.072a30.528 30.528 0 0 1-6.4-37.248l2.88-4.352 127.808-160L561.28 418.176l92.16-118.528a27.328 27.328 0 0 1 39.488-5.568z" p-id="3506"></path></svg>