<?xml version="1.0" standalone="no"?><!DOCTYPE svg PUBLIC "-//W3C//DTD SVG 1.1//EN" "http://www.w3.org/Graphics/SVG/1.1/DTD/svg11.dtd"><svg t="1699847326846" class="icon" viewBox="0 0 1024 1024" version="1.1" xmlns="http://www.w3.org/2000/svg" p-id="4445" xmlns:xlink="http://www.w3.org/1999/xlink" width="72" height="72"><path d="M481.984 49.28a59.968 59.968 0 0 1 60.032 0l353.664 204.224a64 64 0 0 1 32 55.424v408.448a60.032 60.032 0 0 1-30.016 51.968L544 973.44a64 64 0 0 1-64 0l-353.664-204.16a60.032 60.032 0 0 1-30.08-51.968V308.928a64 64 0 0 1 32-55.424z m381.696 296.64L544 530.496v369.024l319.68-184.512V345.92z m-703.424 0v369.088L480 899.52V530.56L160.256 345.856zM512 105.792L192.256 290.432 512 475.008l319.744-184.576L512 105.856z" p-id="4446"></path></svg>