<?xml version="1.0" standalone="no"?><!DOCTYPE svg PUBLIC "-//W3C//DTD SVG 1.1//EN" "http://www.w3.org/Graphics/SVG/1.1/DTD/svg11.dtd"><svg t="1699847297271" class="icon" viewBox="0 0 1024 1024" version="1.1" xmlns="http://www.w3.org/2000/svg" p-id="4147" xmlns:xlink="http://www.w3.org/1999/xlink" width="72" height="72"><path d="M896.064 544a32 32 0 0 1 32 32v288a32 32 0 0 1-32 32h-768a32 32 0 0 1-32-32V576a32 32 0 0 1 32-32h768z m-32 64h-704V832h704V608z m-416 80v64H256v-64h192zM896 128a32 32 0 0 1 32 32V448a32 32 0 0 1-32 32h-768a32 32 0 0 1-32-32V160A32 32 0 0 1 128 128h768z m-32 64h-704v224h704V192zM448 272v64H256v-64h192z" p-id="4148"></path></svg>