<?xml version="1.0" standalone="no"?><!DOCTYPE svg PUBLIC "-//W3C//DTD SVG 1.1//EN" "http://www.w3.org/Graphics/SVG/1.1/DTD/svg11.dtd"><svg t="1689832688700" class="icon" viewBox="0 0 1024 1024" version="1.1" xmlns="http://www.w3.org/2000/svg" p-id="1479" xmlns:xlink="http://www.w3.org/1999/xlink" width="72" height="72"><path d="M395.904 64c0.512 0.512 0.96 0.512 1.472 0.512 0 0.512 0.512 0.512 0.96 0.512 0.512 0 0.96 0.512 1.472 0.512 0 0 0.512 0.512 0.96 0.512l0.768 0.256 0.704 0.256s0.512 0.512 1.024 0.512c0.448 0 0.448 0.512 0.96 0.512 0 0 0.512 0 0.96 0.448 0.512 0 0.512 0.512 0.96 0.512 0 0.512 0.512 0.512 1.024 1.024l0.96 1.024 1.92 2.048 1.024 1.024 0.96 1.024c0.512 0.512 0.96 0.512 0.96 1.024 0.512 0.512 0.512 0.96 1.024 1.472l0.448 1.024c0.512 0.512 1.024 1.024 1.024 1.536 0.448 0 0.448 0.512 0.448 0.512a105.6 105.6 0 0 0 96.32 63.488c41.536 0 78.72-24.896 96.256-63.488 0.512 0 0.512-0.512 0.512-0.512 0.512-0.512 0.512-1.024 0.96-1.536l0.512-1.024c0.512-0.512 0.512-0.96 0.96-1.472l1.92-2.048 1.984-2.048 1.92-2.048c0-0.512 0.576-0.512 1.024-1.024 0.512 0 0.512-0.512 0.96-0.512 0 0 0.512-0.448 1.024-0.448 0 0 0.448-0.512 0.96-0.512 0 0 0.512-0.512 0.96-0.512l0.768-0.256 0.704-0.256s0.512-0.512 1.024-0.512c0.448 0 0.96-0.512 1.408-0.512 0-0.512 0.512-0.512 1.024-0.512C627.584 64 628.096 64 628.608 64h10.752c0.448 0 0.96 0.512 1.472 0.512a443.392 443.392 0 0 1 181.76 110.208c1.024 1.024 1.536 2.048 2.496 3.072 0 0.512 0.512 1.024 0.96 1.536l1.472 3.008c0.512 0.512 0.512 1.536 0.96 2.048l0.512 2.048a7.36 7.36 0 0 1 0.96 3.008c0.512 0.512 0.512 1.536 0.512 2.56 0.512 0.512 0.512 1.536 0.512 2.56 0.448 1.024 0 1.984 0 3.008v2.048c0 1.024-0.512 1.536-0.512 2.56l-0.96 3.008c-0.512 0.512-0.512 1.024-1.024 1.536a25.216 25.216 0 0 1-1.408 3.584 112.512 112.512 0 0 0-17.152 60.416c0 60.992 47.936 110.72 106.56 110.72h10.24c0.512 0.512 1.024 0.512 1.536 0.512 0 0.512 0.448 0.512 0.96 0.512 0.448 0.512 0.448 0.512 0.96 0.512l1.472 0.512c0 0.512 0.512 0.512 0.512 0.512 0.96 0.512 1.472 0.512 1.92 1.024 0 0.512 0.512 0.512 0.512 0.512 0.448 0.512 0.96 0.512 1.472 1.024l0.96 0.512 1.472 0.96c0.512 0 0.96 0.512 1.472 1.024l4.416 4.608c0.448 0.512 0.448 1.024 0.96 1.536l0.448 0.96s0.512 0.512 0.512 1.024 0.512 1.024 0.512 1.536c0.448 0.512 0.448 0.512 0.448 1.024s0.512 1.024 0.512 1.536v1.024c0 0.512 0.512 1.536 0.512 1.984 7.808 34.56 11.712 70.144 11.712 106.688 0 36.608-3.904 72.128-11.712 106.688 0 0.512-0.512 1.536-0.512 2.048v0.96l-0.512 1.536c-0.448 0.512-0.448 0.512-0.448 1.024s-0.512 1.024-0.512 1.536l-0.96 2.048c-0.512 0.512-0.512 1.024-0.96 1.472l-0.512 0.512c-0.512 0.512-0.96 1.024-0.96 3.584l-1.92 2.048-1.024 0.512c-0.512 0.512-0.96 0.512-1.472 1.024l-1.472 0.96-0.96 0.512c-1.024 0.512-1.472 0.512-1.92 1.024 0 0.512-0.512 0.512-0.512 0.512-1.024 0.512-1.472 0.512-1.984 1.024 0 0.512-0.512 0.512-0.512 0.512-0.448 0-0.96 0.512-1.472 0.512-0.448 0.512-0.448 0.512-0.96 0.512-0.448 0.512-0.96 0.512-1.472 0.512-0.448 0.512-0.96 0.512-1.472 0.512h-10.24c-58.688 0-106.56 49.728-106.56 110.72 0 21.824 5.888 42.688 17.088 60.416 1.024 1.024 1.472 2.56 1.92 3.584 0.512 0.512 1.024 1.024 1.024 1.536 0.512 0.96 0.512 1.984 0.96 3.008 0 1.024 0.512 1.536 0.512 2.56v5.12l-0.512 2.496c-0.448 0.512-0.448 1.536-0.448 2.56-0.512 1.024-0.512 1.984-1.024 3.008 0 0.512 0 1.536-0.448 2.048a3.904 3.904 0 0 1-0.96 2.048l-1.472 3.008c0 0.512-0.512 1.024-1.024 1.536-0.96 1.024-1.472 2.048-2.432 3.072a444.864 444.864 0 0 1-181.312 110.208C639.808 960 639.36 960 638.848 960h-10.752c-0.512-0.512-0.96-0.512-1.472-0.512 0-0.512-0.512-0.512-0.96-0.512-0.512 0-0.96-0.512-1.472-0.512 0 0-0.512-0.512-0.96-0.512l-0.768-0.256-0.704-0.256s-0.512-0.512-1.024-0.512c0 0-0.448-0.512-0.96-0.512 0 0-0.512 0-0.96-0.512-0.512 0-0.512-0.448-0.96-0.448 0-0.512-0.512-0.512-1.024-1.024l-0.96-1.024-1.92-2.048-1.024-1.024-0.96-1.024c-0.512-0.512-0.96-0.512-0.96-1.024-0.512-0.512-0.512-0.96-1.024-1.472l-0.448-1.024c-0.512-0.512-1.024-1.024-1.024-1.536-0.448 0-0.448-0.512-0.448-0.512a105.6 105.6 0 0 0-96.32-63.488c-41.536 0-78.72 24.896-96.256 63.488-0.512 0-0.512 0.512-0.512 0.512-0.512 0.512-0.512 1.024-0.96 1.536l-0.512 1.024c-0.512 0.512-0.512 0.96-0.96 1.472l-1.92 2.048-1.984 2.048-1.92 2.048c0 0.512-0.576 0.512-1.024 1.024-0.512 0-0.512 0.448-0.96 0.448 0 0-0.512 0.512-1.024 0.512 0 0-0.448 0.512-0.96 0.512 0 0-0.512 0.512-0.96 0.512l-0.768 0.256-0.704 0.256s-0.512 0.512-1.024 0.512c-0.448 0-0.96 0.512-1.408 0.512 0 0.512-0.512 0.512-1.024 0.512-0.448 0.512-0.96 0.512-1.472 0.512H384.64c-0.448 0-0.96-0.512-1.472-0.512a447.04 447.04 0 0 1-180.352-109.184c-0.448-1.536-1.472-2.048-1.92-3.072-0.512-1.024-1.024-1.536-1.472-2.048-0.512-1.024-1.024-1.536-1.472-2.56 0-0.96-0.512-1.472-1.024-2.56-0.448-0.96-0.448-1.472-0.96-2.496a3.968 3.968 0 0 1-0.96-2.56c-0.512-0.448-0.512-1.472-0.512-2.56-0.448-0.448-0.448-1.472-0.448-2.496v-5.568c0-1.024 0.448-1.536 0.448-2.56 0.512-1.024 0.512-2.048 1.024-3.008 0-0.512 0.448-1.536 0.96-2.048l1.472-3.072c11.2-18.752 17.6-39.616 17.6-61.952 0-60.928-47.936-110.72-106.56-110.72h-11.264c-0.512-0.512-0.96-0.512-1.472-0.512C95.744 640 95.36 640 94.784 640c0-0.512-0.448-0.512-0.96-0.512l-1.472-0.512-0.96-0.512c-0.512 0-1.024-0.512-1.472-0.512-0.512 0-0.512-0.512-0.96-0.512-0.512-0.512-1.024-0.512-1.472-1.024-0.512 0-0.512-0.448-1.024-0.448 0-0.512-0.448-0.512-0.96-1.024l-0.96-1.024-1.024-1.024-1.92-2.048c-0.512 0-0.512-0.512-0.96-1.024 0-0.512-0.512-0.512-0.512-1.024-0.512 0-0.512-0.512-0.96-0.96 0-0.512-0.512-0.512-0.512-1.024 0 0-0.448-0.512-0.448-1.024l-0.512-1.536c0-0.512-0.512-0.512-0.512-1.024L76.8 621.696c-0.512-0.512-0.512-0.512-0.512-1.024s-0.512-0.96-0.512-1.472a492.8 492.8 0 0 1 0-213.888c0-1.024 0.512-1.472 0.512-1.984 0.512-0.512 0.512-0.512 0.512-1.024l0.448-1.536c0-0.512 0.512-0.512 0.512-1.024l0.512-1.536s0.448-0.512 0.448-1.024 0.512-0.512 0.512-1.024c0.448 0 0.448-0.448 0.96-0.96 0-0.512 0.512-0.512 0.512-1.024 0.448 0 0.448-0.512 0.96-1.024l1.92-2.048 1.024-1.024 0.96-1.024c0-0.512 0.512-0.512 0.96-1.024 0.512 0 0.512-0.448 1.024-0.448 0.448-0.512 0.96-1.024 1.472-1.024 0.448 0 0.448-0.512 0.96-0.512 0.448 0 0.96-0.512 1.472-0.512l0.96-0.512 1.472-0.512C93.824 384 94.336 384 94.72 384c0.512-0.512 0.96-0.512 1.472-0.512 0.512-0.512 0.96-0.512 1.472-0.512h11.712c58.688 0 106.56-49.792 106.56-110.72 0-22.4-5.824-43.712-17.6-61.44v-0.512l-1.472-3.072c-0.448-0.512-0.448-1.536-0.96-2.048l-0.96-3.008c0-1.024-0.512-1.536-0.512-2.56v-5.568c0-0.512 0.512-1.536 0.512-2.56 0.512-0.512 0.512-1.536 0.512-2.56 0.448-0.512 0.448-1.472 0.96-2.56l0.96-2.496c0-1.024 0.512-1.536 0.96-2.56l0.768-1.28 0.704-1.28a7.04 7.04 0 0 1 1.472-1.984c0.512-1.024 1.024-1.536 1.92-2.56a438.656 438.656 0 0 1 179.904-109.696C384.192 64 384.64 64 385.152 64z m246.784 64C613.632 173.632 565.44 202.048 512 202.048c-53.44 0-102.08-28.416-130.688-74.048a382.912 382.912 0 0 0-118.784 74.048c9.536 21.824 14.72 46.208 14.72 71.04 0 87.232-62.912 159.296-143.04 166.912A399.936 399.936 0 0 0 128 512c0 24.32 2.368 48.192 6.208 72 80.128 8.128 143.104 79.68 143.104 166.912 0 24.832-5.248 49.216-14.784 71.04 34.816 32 75.328 57.28 118.784 74.048 29.056-45.632 77.248-74.048 130.688-74.048 53.44 0 102.08 28.416 130.688 74.048a377.664 377.664 0 0 0 120.192-75.072 174.528 174.528 0 0 1-14.272-70.016c0-86.72 62.016-157.76 141.184-166.4C894.08 560.704 896 536.32 896 512c0-24.832-2.368-48.64-6.208-72.512-79.168-8.64-141.184-79.68-141.184-166.4a172.8 172.8 0 0 1 14.272-70.016A377.664 377.664 0 0 0 642.688 128zM512 320a192 192 0 1 1 0 384 192 192 0 0 1 0-384z m0 64c-70.592 0-128 57.408-128 128s57.408 128 128 128 128-57.92 128-128c0-70.592-57.408-128-128-128z" p-id="1480"></path></svg>