<?xml version="1.0" standalone="no"?><!DOCTYPE svg PUBLIC "-//W3C//DTD SVG 1.1//EN" "http://www.w3.org/Graphics/SVG/1.1/DTD/svg11.dtd"><svg t="1699847308709" class="icon" viewBox="0 0 1024 1024" version="1.1" xmlns="http://www.w3.org/2000/svg" p-id="4296" xmlns:xlink="http://www.w3.org/1999/xlink" width="72" height="72"><path d="M512 64a160 160 0 0 1 159.68 149.504l0.32 10.496V320h128a32 32 0 0 1 31.488 26.24L832 352v576a32 32 0 0 1-26.24 31.488L800 960h-576a32 32 0 0 1-31.488-26.24L192 928v-576a32 32 0 0 1 26.24-31.488L224 320h128V224A160 160 0 0 1 512 64zM352 384H256v512h512V384h-96v128h-64V384h-192v128h-64V384zM512 128a96 96 0 0 0-96 96V320h192V224A96 96 0 0 0 512 128z" p-id="4297"></path></svg>